<svg width="512" height="512" viewBox="0 0 512 512" fill="none" xmlns="http://www.w3.org/2000/svg">
<rect width="512" height="512" fill="#D9D9D9"/>
<g opacity="0.2">
<path d="M258.227 240.274C256.835 240.135 255.165 240.135 253.634 240.274C220.512 239.161 194.21 212.023 194.21 178.623C194.21 144.528 221.765 116.833 256 116.833C290.096 116.833 317.79 144.528 317.79 178.623C317.651 212.023 291.348 239.161 258.227 240.274Z" stroke="#171717" stroke-width="20.875" stroke-linecap="round" stroke-linejoin="round"/>
<path d="M188.643 291.627C154.965 314.172 154.965 350.912 188.643 373.318C226.914 398.924 289.678 398.924 327.949 373.318C361.627 350.773 361.627 314.033 327.949 291.627C289.817 266.159 227.053 266.159 188.643 291.627Z" stroke="#171717" stroke-width="20.875" stroke-linecap="round" stroke-linejoin="round"/>
</g>
</svg>
