<svg width="408" height="208" viewBox="0 0 408 208" fill="none" xmlns="http://www.w3.org/2000/svg">
<rect width="408" height="208" rx="12" transform="matrix(1 0 0 -1 0 208)" fill="black" fill-opacity="0.2"/>
<g clip-path="url(#clip0_959_2394)">
<path d="M220.004 101.852C219.958 101.32 219.802 100.802 219.548 100.332C219.294 99.8623 218.945 99.4495 218.525 99.1195C217.523 98.3619 216.29 97.9721 215.035 98.0155C212.445 97.9777 209.919 98.8227 207.873 100.411C210.57 94.6387 215.19 90.0738 215.249 90.0188L215.294 89.967C216.284 89.0146 216.968 87.788 217.256 86.4445C217.832 83.712 216.699 80.8274 214.151 78.532C209.107 73.98 207.362 71.6198 206.769 70.6259C206.657 70.4353 206.497 70.2773 206.305 70.1675C206.112 70.0577 205.895 70 205.674 70C205.452 70 205.235 70.0577 205.043 70.1675C204.85 70.2773 204.69 70.4353 204.578 70.6259C203.988 71.6198 202.243 73.98 197.199 78.532C194.648 80.8274 193.518 83.712 194.091 86.4445C194.382 87.7877 195.066 89.0139 196.056 89.967L196.102 90.0188C196.157 90.077 200.78 94.6322 203.467 100.411C201.421 98.8227 198.896 97.9777 196.306 98.0155C195.049 97.9738 193.817 98.3633 192.812 99.1195C192.392 99.4496 192.043 99.8624 191.788 100.332C191.533 100.802 191.377 101.319 191.33 101.852C191.291 102.496 191.392 103.142 191.627 103.743C191.862 104.345 192.224 104.888 192.689 105.336C193.729 106.407 195.279 107.139 197.154 107.456C200.505 108.023 202.454 108.923 203.503 109.58C204.073 109.894 204.569 110.325 204.96 110.846C205.023 110.982 205.124 111.097 205.251 111.178C205.378 111.258 205.525 111.301 205.675 111.301C205.825 111.301 205.972 111.258 206.099 111.178C206.226 111.097 206.327 110.982 206.391 110.846C206.781 110.325 207.278 109.894 207.848 109.58C208.893 108.932 210.846 108.023 214.196 107.456C216.077 107.132 217.622 106.407 218.658 105.336C219.122 104.888 219.483 104.344 219.715 103.742C219.948 103.141 220.047 102.496 220.004 101.852ZM205.675 91.6052C206.758 92.1137 207.94 92.3747 209.136 92.3692C209.833 92.3657 210.526 92.2842 211.205 92.1264C209.366 94.425 207.08 97.737 205.672 101.447C204.28 97.7403 201.981 94.425 200.142 92.1264C201.992 92.584 203.943 92.4003 205.675 91.6052ZM203.461 86.1305C203.574 83.8415 205.105 83.67 205.565 83.67H205.717C206.057 83.67 207.77 83.7088 207.89 86.1305C207.948 87.2895 207.242 88.5748 206.057 89.4781C205.934 89.572 205.805 89.6626 205.675 89.7468C205.546 89.6626 205.416 89.572 205.293 89.4781C204.105 88.5748 203.402 87.2895 203.461 86.1305ZM195.691 86.1111C195.237 83.9613 196.186 81.64 198.281 79.7396C202.687 75.7736 204.73 73.3519 205.675 71.9436C206.621 73.3584 208.663 75.7801 213.063 79.7461C215.168 81.6465 216.116 83.9549 215.653 86.1175C215.245 88.0601 213.711 89.6303 211.58 90.3263C210.225 90.7962 208.761 90.8559 207.372 90.4979C208.796 89.2774 209.593 87.6359 209.512 86.0431C209.444 84.7092 209.01 83.6732 208.217 82.9642C207.504 82.366 206.603 82.0382 205.672 82.0382C204.741 82.0382 203.84 82.366 203.127 82.9642C202.334 83.6732 201.897 84.7092 201.832 86.0431C201.751 87.6392 202.544 89.2806 203.972 90.4979C202.583 90.8561 201.119 90.7964 199.763 90.3263C197.614 89.6238 196.092 88.0471 195.684 86.1111H195.691ZM213.931 105.86C209.01 106.682 206.695 108.204 205.675 109.191C204.652 108.22 202.341 106.682 197.423 105.854C195.156 105.468 192.79 104.096 192.965 101.988C193.101 100.369 194.739 99.644 196.306 99.644C198.047 99.6167 199.765 100.052 201.284 100.905C202.802 101.758 204.067 102.999 204.95 104.5L204.969 104.526C204.969 104.526 204.969 104.549 204.969 104.559L204.989 104.584C205.004 104.608 205.022 104.631 205.041 104.652L205.057 104.675H205.076C205.099 104.7 205.124 104.724 205.151 104.746L205.18 104.766L205.235 104.801L205.274 104.824H205.306H205.342L205.406 104.847H205.429H205.445H205.484H205.523C205.562 104.847 205.601 104.847 205.64 104.847C205.678 104.847 205.717 104.847 205.756 104.847H205.795H205.834H205.853L205.921 104.824H205.954H205.986L206.028 104.801L206.073 104.772L206.106 104.75H206.122L206.167 104.707C206.184 104.695 206.199 104.681 206.213 104.665L206.235 104.636L206.277 104.581C206.287 104.572 206.294 104.561 206.3 104.549C206.304 104.538 206.31 104.529 206.316 104.52V104.494C207.2 102.993 208.466 101.752 209.985 100.899C211.504 100.046 213.222 99.611 214.964 99.6375C216.527 99.6375 218.169 100.363 218.302 101.981C218.561 104.096 216.197 105.468 213.924 105.854L213.931 105.86Z" fill="black" fill-opacity="0.3"/>
</g>
<g clip-path="url(#clip1_959_2394)">
<path d="M168.473 131.713C166.986 131.713 165.603 131.433 164.322 130.873C163.039 130.314 161.927 129.499 160.988 128.429C160.045 127.355 159.311 126.046 158.785 124.501C158.262 122.959 158 121.214 158 119.264C158 117.315 158.268 115.568 158.803 114.023C159.338 112.481 160.088 111.174 161.052 110.1C162.016 109.027 163.144 108.206 164.436 107.637C165.729 107.068 167.141 106.784 168.674 106.784C170.14 106.784 171.431 107.085 172.547 107.687C173.663 108.289 174.572 108.974 175.274 109.74L173.632 111.711C172.997 111.032 172.274 110.485 171.466 110.068C170.654 109.652 169.734 109.443 168.706 109.443C167.194 109.443 165.87 109.837 164.733 110.625C163.592 111.413 162.704 112.535 162.069 113.991C161.436 115.448 161.12 117.172 161.12 119.164C161.12 121.202 161.426 122.959 162.037 124.437C162.651 125.915 163.516 127.054 164.632 127.854C165.748 128.65 167.073 129.049 168.606 129.049C169.746 129.049 170.769 128.809 171.675 128.328C172.585 127.848 173.422 127.18 174.189 126.326L175.863 128.264C174.923 129.359 173.851 130.207 172.647 130.81C171.443 131.412 170.052 131.713 168.473 131.713ZM186.505 131.713C185.76 131.713 185.158 131.559 184.699 131.252C184.239 130.945 183.9 130.49 183.681 129.888C183.462 129.286 183.353 128.568 183.353 127.735V105.142H186.373V127.936C186.373 128.395 186.455 128.723 186.619 128.921C186.783 129.116 186.975 129.213 187.194 129.213C187.282 129.213 187.37 129.209 187.458 129.199C187.546 129.187 187.667 129.171 187.819 129.149L188.247 131.448C188.028 131.515 187.787 131.576 187.522 131.631C187.261 131.685 186.922 131.713 186.505 131.713ZM200.071 131.713C199.086 131.713 198.199 131.515 197.411 131.12C196.621 130.724 196.002 130.15 195.555 129.396C195.105 128.641 194.88 127.728 194.88 126.654C194.88 124.705 195.751 123.21 197.494 122.17C199.233 121.13 202.008 120.402 205.818 119.985C205.818 119.219 205.713 118.49 205.504 117.8C205.297 117.113 204.93 116.555 204.404 116.126C203.878 115.7 203.122 115.487 202.137 115.487C201.109 115.487 200.141 115.69 199.232 116.094C198.322 116.499 197.507 116.93 196.787 117.39L195.637 115.323C196.184 114.974 196.818 114.618 197.539 114.256C198.263 113.894 199.052 113.593 199.907 113.353C200.761 113.112 201.669 112.992 202.63 112.992C204.077 112.992 205.254 113.298 206.16 113.909C207.07 114.523 207.739 115.372 208.168 116.455C208.593 117.54 208.806 118.827 208.806 120.314V131.284H206.343L206.078 129.149H205.983C205.149 129.849 204.236 130.451 203.241 130.956C202.244 131.46 201.187 131.713 200.071 131.713ZM200.924 129.282C201.778 129.282 202.593 129.084 203.369 128.689C204.147 128.296 204.964 127.717 205.818 126.951V121.988C203.826 122.207 202.239 122.52 201.056 122.927C199.873 123.332 199.029 123.824 198.524 124.405C198.023 124.983 197.772 125.667 197.772 126.458C197.772 127.486 198.077 128.213 198.689 128.638C199.303 129.067 200.048 129.282 200.924 129.282ZM222.404 131.713C221.154 131.713 219.944 131.477 218.773 131.006C217.602 130.534 216.6 129.949 215.767 129.25L217.213 127.243C218.001 127.878 218.811 128.394 219.644 128.789C220.478 129.181 221.429 129.377 222.5 129.377C223.683 129.377 224.565 129.11 225.145 128.574C225.726 128.039 226.017 127.376 226.017 126.586C226.017 125.974 225.815 125.467 225.41 125.062C225.003 124.655 224.487 124.303 223.864 124.008C223.24 123.713 222.6 123.446 221.943 123.206C221.11 122.877 220.295 122.511 219.498 122.106C218.699 121.699 218.042 121.173 217.528 120.528C217.011 119.883 216.752 119.056 216.752 118.046C216.752 117.086 216.994 116.226 217.478 115.469C217.958 114.715 218.659 114.113 219.58 113.663C220.499 113.216 221.604 112.992 222.897 112.992C223.991 112.992 225.015 113.188 225.967 113.581C226.918 113.976 227.733 114.458 228.412 115.027L226.97 116.897C226.356 116.459 225.726 116.088 225.082 115.784C224.434 115.477 223.716 115.323 222.929 115.323C221.791 115.323 220.953 115.58 220.415 116.094C219.88 116.608 219.612 117.216 219.612 117.919C219.612 118.466 219.793 118.925 220.155 119.296C220.514 119.667 220.99 119.979 221.583 120.231C222.173 120.484 222.796 120.741 223.453 121.002C224.11 121.246 224.762 121.509 225.41 121.791C226.055 122.077 226.634 122.416 227.148 122.809C227.662 123.204 228.079 123.692 228.398 124.273C228.714 124.854 228.872 125.57 228.872 126.421C228.872 127.385 228.626 128.273 228.133 129.085C227.641 129.894 226.918 130.534 225.967 131.006C225.015 131.477 223.827 131.713 222.404 131.713ZM236.691 138.97C236.274 138.97 235.891 138.937 235.541 138.87C235.191 138.806 234.874 138.719 234.588 138.61L235.181 136.21C235.354 136.277 235.561 136.343 235.801 136.407C236.044 136.473 236.297 136.507 236.558 136.507C237.565 136.507 238.392 136.14 239.04 135.408C239.685 134.672 240.192 133.756 240.563 132.662L240.96 131.316L233.799 113.448H236.919L240.531 123.338C240.817 124.125 241.108 124.957 241.403 125.833C241.698 126.709 241.999 127.562 242.306 128.392H242.47C242.71 127.562 242.957 126.713 243.209 125.847C243.461 124.983 243.697 124.147 243.916 123.338L247.132 113.448H250.056L243.355 132.794C242.941 133.956 242.438 135.002 241.845 135.932C241.255 136.863 240.544 137.602 239.71 138.149C238.88 138.696 237.874 138.97 236.691 138.97Z" fill="black" fill-opacity="0.3"/>
</g>
<defs>
<clipPath id="clip0_959_2394">
<rect width="28.6924" height="41.301" fill="white" transform="translate(191.322 70)"/>
</clipPath>
<clipPath id="clip1_959_2394">
<rect width="92.0559" height="33.8282" fill="white" transform="translate(158 105.142)"/>
</clipPath>
</defs>
</svg>
