<svg width="172" height="130" viewBox="0 0 172 130" fill="none" xmlns="http://www.w3.org/2000/svg">
<g clip-path="url(#clip0_402_2531)">
<path d="M115.813 60.0818C115.726 59.0873 115.436 58.1213 114.96 57.2434C114.485 56.3656 113.835 55.5945 113.049 54.978C111.177 53.5631 108.876 52.835 106.531 52.9159C101.693 52.8455 96.9756 54.4236 93.1543 57.3908C98.1916 46.6088 106.821 38.0823 106.93 37.9795L107.014 37.8827C108.864 36.1039 110.141 33.8128 110.679 31.3035C111.755 26.1997 109.639 20.8117 104.88 16.5242C95.4583 8.02197 92.1989 3.6136 91.0923 1.75713C90.8822 1.40105 90.5829 1.10592 90.2239 0.900887C89.865 0.695854 89.4587 0.588013 89.0453 0.588013C88.6319 0.588013 88.2256 0.695854 87.8666 0.900887C87.5077 1.10592 87.2084 1.40105 86.9983 1.75713C85.8978 3.6136 82.6383 8.02197 73.2169 16.5242C68.4518 20.8117 66.3413 26.1997 67.4116 31.3035C67.9549 33.8123 69.2327 36.1027 71.0823 37.8827L71.1669 37.9795C71.2697 38.0884 79.905 46.5967 84.9242 57.3908C81.1029 54.4236 76.3854 52.8455 71.5479 52.9159C69.2013 52.838 66.8987 53.5657 65.023 54.978C64.2375 55.5947 63.5866 56.3657 63.1103 57.2434C62.6339 58.1212 62.3424 59.0871 62.2534 60.0818C62.1807 61.2856 62.3702 62.4907 62.8087 63.6141C63.2472 64.7375 63.9243 65.7523 64.7932 66.5885C66.7344 68.5901 69.6309 69.9568 73.1322 70.5494C79.391 71.6077 83.0314 73.2888 84.9907 74.5163C86.0553 75.1024 86.9829 75.9085 87.7119 76.8808C87.8308 77.1349 88.0197 77.3498 88.2564 77.5004C88.4931 77.6509 88.7678 77.7309 89.0483 77.7309C89.3289 77.7309 89.6036 77.6509 89.8403 77.5004C90.077 77.3498 90.2658 77.1349 90.3847 76.8808C91.1137 75.9085 92.0414 75.1024 93.106 74.5163C95.0592 73.3069 98.7056 71.6077 104.964 70.5494C108.478 69.9447 111.362 68.5901 113.297 66.5885C114.164 65.7519 114.838 64.7364 115.273 63.6126C115.707 62.4889 115.892 61.284 115.813 60.0818ZM89.0483 40.9426C91.0704 41.8926 93.2787 42.3801 95.5127 42.3697C96.8136 42.3631 98.1097 42.211 99.3768 41.9162C95.9421 46.2097 91.6728 52.3959 89.0423 59.3259C86.442 52.4019 82.1485 46.2097 78.7138 41.9162C82.1695 42.771 85.813 42.4277 89.0483 40.9426ZM84.9121 30.7169C85.1237 26.4416 87.984 26.1211 88.8427 26.1211H89.1269C89.7619 26.1211 92.9608 26.1936 93.1846 30.7169C93.2934 32.8818 91.9751 35.2825 89.7619 36.9696C89.5321 37.145 89.2902 37.3143 89.0483 37.4715C88.8064 37.3143 88.5645 37.145 88.3348 36.9696C86.1155 35.2825 84.8032 32.8818 84.9121 30.7169ZM70.3989 30.6806C69.5523 26.6653 71.3241 22.3295 75.2366 18.7798C83.4668 11.3721 87.2826 6.84882 89.0483 4.21831C90.8141 6.86091 94.6298 11.3842 102.848 18.7919C106.779 22.3416 108.55 26.6532 107.686 30.6927C106.924 34.321 104.057 37.2538 100.078 38.554C97.5464 39.4316 94.8119 39.5431 92.217 38.8745C94.8778 36.5947 96.3654 33.5288 96.2142 30.5536C96.0872 28.0622 95.2769 26.1271 93.7953 24.8028C92.4635 23.6856 90.7807 23.0732 89.0423 23.0732C87.3039 23.0732 85.6211 23.6856 84.2892 24.8028C82.8077 26.1271 81.9913 28.0622 81.8704 30.5536C81.7192 33.5349 83.2007 36.6008 85.8675 38.8745C83.2726 39.5434 80.5381 39.4319 78.0062 38.554C73.9909 37.2418 71.1488 34.2968 70.3868 30.6806H70.3989ZM104.469 67.5682C95.2769 69.1041 90.9532 71.9463 89.0483 73.7907C87.1374 71.9765 82.8198 69.1041 73.6342 67.5561C69.4012 66.8365 64.9807 64.2725 65.3072 60.3358C65.5612 57.3122 68.6211 55.9577 71.5479 55.9577C74.8009 55.9068 78.0091 56.7195 80.8455 58.313C83.6819 59.9065 86.045 62.2237 87.6938 65.0284L87.73 65.0767C87.73 65.0767 87.73 65.1191 87.73 65.1372L87.7663 65.1856C87.7952 65.2304 87.8275 65.2729 87.8631 65.3126L87.8933 65.3549H87.9296C87.973 65.4023 88.0194 65.4467 88.0687 65.488L88.1231 65.5242L88.2259 65.5908L88.2985 65.6331H88.3589H88.4255L88.5464 65.6754H88.5887H88.619H88.6915H88.7641C88.8367 65.6754 88.9092 65.6754 88.9818 65.6754C89.0544 65.6754 89.1269 65.6754 89.1995 65.6754H89.2721H89.3446H89.3809L89.5079 65.6331H89.5684H89.6288L89.7075 65.5908L89.7921 65.5363L89.8526 65.494H89.8828L89.9675 65.4154C89.9985 65.3924 90.0269 65.366 90.0521 65.3368L90.0945 65.2824L90.1731 65.1795C90.1905 65.1619 90.2049 65.1415 90.2154 65.1191C90.2232 65.0997 90.2333 65.0815 90.2457 65.0647V65.0163C91.8968 62.2124 94.2612 59.896 97.0983 58.3027C99.9355 56.7094 103.144 55.8961 106.398 55.9456C109.318 55.9456 112.384 57.3001 112.632 60.3237C113.116 64.2725 108.702 66.8365 104.456 67.5561L104.469 67.5682Z" fill="#397C65"/>
</g>
<g clip-path="url(#clip1_402_2531)">
<path d="M19.5621 115.857C16.7846 115.857 14.2002 115.334 11.8089 114.289C9.41187 113.244 7.3358 111.721 5.58066 109.722C3.81984 107.717 2.44811 105.272 1.46546 102.386C0.488486 99.5065 0 96.2461 0 92.6052C0 88.9643 0.499846 85.7011 1.49954 82.8156C2.49923 79.9358 3.89936 77.4934 5.69995 75.4883C7.50053 73.4833 9.60783 71.9497 12.0219 70.8875C14.4359 69.8253 17.0743 69.2942 19.937 69.2942C22.6748 69.2942 25.086 69.8566 27.1706 70.9812C29.2552 72.1059 30.9535 73.3839 32.2656 74.8153L29.1984 78.4959C28.0112 77.2293 26.6622 76.2069 25.1513 75.4287C23.6347 74.6505 21.9165 74.2614 19.9967 74.2614C17.1737 74.2614 14.7 74.997 12.5757 76.4681C10.4456 77.9393 8.78706 80.0352 7.59993 82.756C6.41847 85.4767 5.82775 88.6973 5.82775 92.4178C5.82775 96.2234 6.39859 99.5065 7.54029 102.267C8.68766 105.028 10.3036 107.155 12.3882 108.649C14.4728 110.137 16.9465 110.881 19.8092 110.881C21.9393 110.881 23.8506 110.432 25.5433 109.535C27.2416 108.637 28.8064 107.39 30.2378 105.794L33.3647 109.415C31.6096 111.46 29.6073 113.045 27.358 114.17C25.1087 115.294 22.5101 115.857 19.5621 115.857ZM53.2421 115.857C51.8505 115.857 50.7258 115.57 49.8681 114.996C49.0104 114.422 48.3771 113.573 47.9681 112.449C47.5592 111.324 47.3547 109.983 47.3547 108.427V66.227H52.995V108.802C52.995 109.66 53.1484 110.273 53.4551 110.642C53.7618 111.006 54.1197 111.188 54.5286 111.188C54.6933 111.188 54.8581 111.179 55.0228 111.162C55.1875 111.139 55.4119 111.108 55.6959 111.068L56.4968 115.362C56.0878 115.487 55.6362 115.601 55.1421 115.703C54.6536 115.805 54.0203 115.857 53.2421 115.857ZM78.5809 115.857C76.7405 115.857 75.0848 115.487 73.6136 114.749C72.1368 114.011 70.9809 112.937 70.146 111.528C69.3053 110.12 68.885 108.413 68.885 106.408C68.885 102.767 70.5123 99.9751 73.767 98.0325C77.016 96.0899 82.1991 94.7296 89.3162 93.9514C89.3162 92.52 89.1202 91.1596 88.7283 89.8703C88.342 88.5866 87.6576 87.5443 86.675 86.7434C85.6923 85.9482 84.2808 85.5506 82.4405 85.5506C80.5206 85.5506 78.7115 85.9283 77.0132 86.6837C75.3148 87.4392 73.7926 88.2458 72.4464 89.1035L70.2993 85.2439C71.3217 84.5906 72.506 83.9261 73.8522 83.2501C75.2041 82.5742 76.678 82.0119 78.2741 81.5632C79.8702 81.1144 81.5657 80.8901 83.3606 80.8901C86.0643 80.8901 88.2625 81.4609 89.9552 82.6026C91.6535 83.75 92.9031 85.3347 93.704 87.3568C94.4992 89.3846 94.8968 91.7873 94.8968 94.5648V115.056H90.296L89.8018 111.068H89.6229C88.0666 112.375 86.3597 113.499 84.5023 114.442C82.6393 115.385 80.6654 115.857 78.5809 115.857ZM80.1741 111.315C81.7702 111.315 83.2925 110.946 84.7409 110.208C86.195 109.475 87.7201 108.393 89.3162 106.962V97.6917C85.5957 98.1007 82.6307 98.6857 80.4212 99.4469C78.2117 100.202 76.6354 101.122 75.6925 102.207C74.7553 103.287 74.2867 104.565 74.2867 106.041C74.2867 107.961 74.8576 109.319 75.9993 110.114C77.1466 110.915 78.5383 111.315 80.1741 111.315ZM120.295 115.857C117.961 115.857 115.7 115.416 113.513 114.536C111.326 113.656 109.455 112.562 107.899 111.256L110.599 107.507C112.071 108.694 113.584 109.657 115.141 110.395C116.697 111.128 118.475 111.494 120.474 111.494C122.684 111.494 124.331 110.994 125.416 109.995C126.501 108.995 127.043 107.757 127.043 106.28C127.043 105.138 126.665 104.19 125.91 103.434C125.149 102.673 124.186 102.017 123.022 101.466C121.857 100.915 120.662 100.415 119.435 99.9666C117.878 99.3531 116.356 98.6687 114.868 97.9132C113.374 97.1521 112.147 96.1695 111.187 94.9653C110.222 93.7611 109.739 92.2161 109.739 90.3304C109.739 88.5354 110.19 86.9308 111.094 85.5165C111.991 84.1078 113.3 82.9832 115.021 82.1425C116.737 81.3076 118.801 80.8901 121.215 80.8901C123.26 80.8901 125.172 81.2564 126.949 81.9892C128.727 82.7276 130.25 83.6279 131.516 84.69L128.824 88.1833C127.677 87.3654 126.501 86.6724 125.297 86.1044C124.087 85.5307 122.746 85.2439 121.275 85.2439C119.151 85.2439 117.586 85.7238 116.58 86.6837C115.581 87.6437 115.081 88.7797 115.081 90.0918C115.081 91.1142 115.419 91.9719 116.095 92.6649C116.765 93.3578 117.654 93.94 118.762 94.4115C119.864 94.8829 121.028 95.3629 122.255 95.8514C123.482 96.3058 124.7 96.7971 125.91 97.3254C127.114 97.8593 128.196 98.4926 129.156 99.2253C130.116 99.9637 130.894 100.875 131.491 101.96C132.081 103.045 132.377 104.383 132.377 105.973C132.377 107.774 131.917 109.432 130.996 110.949C130.076 112.46 128.727 113.656 126.949 114.536C125.172 115.416 122.954 115.857 120.295 115.857ZM146.98 129.412C146.202 129.412 145.486 129.35 144.833 129.225C144.18 129.105 143.586 128.943 143.052 128.739L144.16 124.257C144.484 124.382 144.87 124.504 145.319 124.624C145.773 124.749 146.245 124.811 146.733 124.811C148.613 124.811 150.158 124.127 151.368 122.758C152.572 121.383 153.521 119.674 154.214 117.629L154.955 115.115L141.578 81.7421H147.406L154.154 100.214C154.688 101.685 155.23 103.238 155.781 104.874C156.332 106.51 156.895 108.103 157.468 109.654H157.775C158.224 108.103 158.684 106.519 159.155 104.9C159.627 103.287 160.067 101.725 160.476 100.214L166.483 81.7421H171.944L159.428 117.876C158.656 120.046 157.716 122 156.608 123.738C155.506 125.476 154.177 126.856 152.621 127.878C151.07 128.901 149.19 129.412 146.98 129.412Z" fill="#397C65"/>
</g>
<defs>
<clipPath id="clip0_402_2531">
<rect width="53.5924" height="77.1429" fill="white" transform="translate(62.2383 0.588013)"/>
</clipPath>
<clipPath id="clip1_402_2531">
<rect width="171.944" height="63.1851" fill="white" transform="translate(0 66.227)"/>
</clipPath>
</defs>
</svg>
