<svg width="172" height="129" viewBox="0 0 172 129" fill="none" xmlns="http://www.w3.org/2000/svg">
<g clip-path="url(#clip0_959_2335)">
<path d="M115.813 59.4938C115.726 58.4993 115.436 57.5333 114.96 56.6554C114.485 55.7775 113.835 55.0065 113.049 54.39C111.177 52.975 108.876 52.247 106.531 52.3279C101.693 52.2574 96.9756 53.8356 93.1543 56.8028C98.1916 46.0208 106.821 37.4943 106.93 37.3915L107.014 37.2947C108.864 35.5159 110.141 33.2248 110.679 30.7154C111.755 25.6117 109.639 20.2237 104.88 15.9362C95.4583 7.43395 92.1989 3.02559 91.0923 1.16911C90.8822 0.813036 90.5829 0.517906 90.2239 0.312874C89.865 0.107842 89.4587 0 89.0453 0C88.6319 0 88.2256 0.107842 87.8666 0.312874C87.5077 0.517906 87.2084 0.813036 86.9983 1.16911C85.8978 3.02559 82.6383 7.43395 73.2169 15.9362C68.4518 20.2237 66.3413 25.6117 67.4116 30.7154C67.9549 33.2243 69.2327 35.5147 71.0823 37.2947L71.1669 37.3915C71.2697 37.5003 79.905 46.0087 84.9242 56.8028C81.1029 53.8356 76.3854 52.2574 71.5479 52.3279C69.2013 52.25 66.8987 52.9777 65.023 54.39C64.2375 55.0067 63.5866 55.7776 63.1103 56.6554C62.6339 57.5331 62.3424 58.4991 62.2534 59.4938C62.1807 60.6975 62.3702 61.9027 62.8087 63.0261C63.2472 64.1495 63.9243 65.1643 64.7932 66.0005C66.7344 68.0021 69.6309 69.3688 73.1322 69.9614C79.391 71.0196 83.0314 72.7008 84.9907 73.9283C86.0553 74.5144 86.9829 75.3204 87.7119 76.2928C87.8308 76.5468 88.0197 76.7618 88.2564 76.9123C88.4931 77.0629 88.7678 77.1429 89.0483 77.1429C89.3289 77.1429 89.6036 77.0629 89.8403 76.9123C90.077 76.7618 90.2658 76.5468 90.3847 76.2928C91.1137 75.3204 92.0414 74.5144 93.106 73.9283C95.0592 72.7189 98.7056 71.0196 104.964 69.9614C108.478 69.3567 111.362 68.0021 113.297 66.0005C114.164 65.1639 114.838 64.1483 115.273 63.0246C115.707 61.9009 115.892 60.696 115.813 59.4938ZM89.0483 40.3546C91.0704 41.3045 93.2787 41.7921 95.5127 41.7817C96.8136 41.7751 98.1097 41.623 99.3768 41.3282C95.9421 45.6216 91.6728 51.8079 89.0423 58.7379C86.442 51.8139 82.1485 45.6216 78.7138 41.3282C82.1695 42.183 85.813 41.8397 89.0483 40.3546ZM84.9121 30.1289C85.1237 25.8535 87.984 25.533 88.8427 25.533H89.1269C89.7619 25.533 92.9608 25.6056 93.1846 30.1289C93.2934 32.2938 91.9751 34.6945 89.7619 36.3816C89.5321 36.557 89.2902 36.7263 89.0483 36.8835C88.8064 36.7263 88.5645 36.557 88.3348 36.3816C86.1155 34.6945 84.8032 32.2938 84.9121 30.1289ZM70.3989 30.0926C69.5523 26.0773 71.3241 21.7415 75.2366 18.1918C83.4668 10.7841 87.2826 6.26081 89.0483 3.6303C90.8141 6.2729 94.6298 10.7962 102.848 18.2039C106.779 21.7536 108.55 26.0652 107.686 30.1047C106.924 33.733 104.057 36.6658 100.078 37.966C97.5464 38.8436 94.8119 38.9551 92.217 38.2865C94.8778 36.0067 96.3654 32.9408 96.2142 29.9656C96.0872 27.4742 95.2769 25.5391 93.7953 24.2148C92.4635 23.0975 90.7807 22.4852 89.0423 22.4852C87.3039 22.4852 85.6211 23.0975 84.2892 24.2148C82.8077 25.5391 81.9913 27.4742 81.8704 29.9656C81.7192 32.9468 83.2007 36.0127 85.8675 38.2865C83.2726 38.9554 80.5381 38.8439 78.0062 37.966C73.9909 36.6537 71.1488 33.7088 70.3868 30.0926H70.3989ZM104.469 66.9802C95.2769 68.5161 90.9532 71.3583 89.0483 73.2027C87.1374 71.3885 82.8198 68.5161 73.6342 66.9681C69.4012 66.2485 64.9807 63.6845 65.3072 59.7478C65.5612 56.7242 68.6211 55.3696 71.5479 55.3696C74.8009 55.3188 78.0091 56.1315 80.8455 57.725C83.6819 59.3185 86.045 61.6357 87.6938 64.4404L87.73 64.4887C87.73 64.4887 87.73 64.5311 87.73 64.5492L87.7663 64.5976C87.7952 64.6424 87.8275 64.6849 87.8631 64.7246L87.8933 64.7669H87.9296C87.973 64.8143 88.0194 64.8587 88.0687 64.8999L88.1231 64.9362L88.2259 65.0027L88.2985 65.0451H88.3589H88.4255L88.5464 65.0874H88.5887H88.619H88.6915H88.7641C88.8367 65.0874 88.9092 65.0874 88.9818 65.0874C89.0544 65.0874 89.1269 65.0874 89.1995 65.0874H89.2721H89.3446H89.3809L89.5079 65.0451H89.5684H89.6288L89.7075 65.0027L89.7921 64.9483L89.8526 64.906H89.8828L89.9675 64.8274C89.9985 64.8044 90.0269 64.778 90.0521 64.7488L90.0945 64.6943L90.1731 64.5915C90.1905 64.5739 90.2049 64.5535 90.2154 64.5311C90.2232 64.5117 90.2333 64.4934 90.2457 64.4766V64.4283C91.8968 61.6244 94.2612 59.308 97.0983 57.7147C99.9355 56.1214 103.144 55.3081 106.398 55.3576C109.318 55.3576 112.384 56.7121 112.632 59.7357C113.116 63.6845 108.702 66.2485 104.456 66.9681L104.469 66.9802Z" fill="#397C65"/>
</g>
<g clip-path="url(#clip1_959_2335)">
<path d="M19.5621 115.269C16.7846 115.269 14.2002 114.746 11.8089 113.701C9.41187 112.656 7.3358 111.133 5.58066 109.134C3.81984 107.129 2.44811 104.684 1.46546 101.798C0.488486 98.9185 0 95.6581 0 92.0172C0 88.3763 0.499846 85.1131 1.49954 82.2276C2.49923 79.3478 3.89936 76.9054 5.69995 74.9003C7.50053 72.8953 9.60783 71.3616 12.0219 70.2995C14.4359 69.2373 17.0743 68.7062 19.937 68.7062C22.6748 68.7062 25.086 69.2685 27.1706 70.3932C29.2552 71.5178 30.9535 72.7959 32.2656 74.2272L29.1984 77.9079C28.0112 76.6413 26.6622 75.6189 25.1513 74.8407C23.6347 74.0625 21.9165 73.6734 19.9967 73.6734C17.1737 73.6734 14.7 74.409 12.5757 75.8801C10.4456 77.3513 8.78706 79.4472 7.59993 82.168C6.41847 84.8887 5.82775 88.1093 5.82775 91.8298C5.82775 95.6354 6.39859 98.9185 7.54029 101.679C8.68766 104.44 10.3036 106.567 12.3882 108.061C14.4728 109.549 16.9465 110.293 19.8092 110.293C21.9393 110.293 23.8506 109.844 25.5433 108.947C27.2416 108.049 28.8064 106.802 30.2378 105.206L33.3647 108.827C31.6096 110.872 29.6073 112.457 27.358 113.582C25.1087 114.706 22.5101 115.269 19.5621 115.269ZM53.2421 115.269C51.8505 115.269 50.7258 114.982 49.8681 114.408C49.0104 113.834 48.3771 112.985 47.9681 111.861C47.5592 110.736 47.3547 109.395 47.3547 107.839V65.639H52.995V108.214C52.995 109.072 53.1484 109.685 53.4551 110.054C53.7618 110.418 54.1197 110.6 54.5286 110.6C54.6933 110.6 54.8581 110.591 55.0228 110.574C55.1875 110.551 55.4119 110.52 55.6959 110.48L56.4968 114.774C56.0878 114.899 55.6362 115.013 55.1421 115.115C54.6536 115.217 54.0203 115.269 53.2421 115.269ZM78.5809 115.269C76.7405 115.269 75.0848 114.899 73.6136 114.161C72.1368 113.423 70.9809 112.349 70.146 110.94C69.3053 109.532 68.885 107.825 68.885 105.82C68.885 102.179 70.5123 99.3871 73.767 97.4445C77.016 95.5019 82.1991 94.1415 89.3162 93.3634C89.3162 91.932 89.1202 90.5716 88.7283 89.2823C88.342 87.9986 87.6576 86.9563 86.675 86.1554C85.6923 85.3602 84.2808 84.9626 82.4405 84.9626C80.5206 84.9626 78.7115 85.3403 77.0132 86.0957C75.3148 86.8512 73.7926 87.6578 72.4464 88.5154L70.2993 84.6558C71.3217 84.0026 72.506 83.3381 73.8522 82.6621C75.2041 81.9862 76.678 81.4239 78.2741 80.9752C79.8702 80.5264 81.5657 80.3021 83.3606 80.3021C86.0643 80.3021 88.2625 80.8729 89.9552 82.0146C91.6535 83.162 92.9031 84.7467 93.704 86.7688C94.4992 88.7966 94.8968 91.1993 94.8968 93.9768V114.468H90.296L89.8018 110.48H89.6229C88.0666 111.787 86.3597 112.911 84.5023 113.854C82.6393 114.797 80.6654 115.269 78.5809 115.269ZM80.1741 110.727C81.7702 110.727 83.2925 110.358 84.7409 109.62C86.195 108.887 87.7201 107.805 89.3162 106.374V97.1037C85.5957 97.5127 82.6307 98.0977 80.4212 98.8588C78.2117 99.6143 76.6354 100.534 75.6925 101.619C74.7553 102.699 74.2867 103.977 74.2867 105.453C74.2867 107.373 74.8576 108.731 75.9993 109.526C77.1466 110.327 78.5383 110.727 80.1741 110.727ZM120.295 115.269C117.961 115.269 115.7 114.828 113.513 113.948C111.326 113.068 109.455 111.974 107.899 110.668L110.599 106.919C112.071 108.106 113.584 109.069 115.141 109.807C116.697 110.54 118.475 110.906 120.474 110.906C122.684 110.906 124.331 110.406 125.416 109.407C126.501 108.407 127.043 107.169 127.043 105.692C127.043 104.55 126.665 103.602 125.91 102.846C125.149 102.085 124.186 101.429 123.022 100.878C121.857 100.327 120.662 99.8273 119.435 99.3786C117.878 98.7651 116.356 98.0807 114.868 97.3252C113.374 96.5641 112.147 95.5814 111.187 94.3773C110.222 93.1731 109.739 91.6281 109.739 89.7423C109.739 87.9474 110.19 86.3428 111.094 84.9285C111.991 83.5198 113.3 82.3952 115.021 81.5545C116.737 80.7196 118.801 80.3021 121.215 80.3021C123.26 80.3021 125.172 80.6684 126.949 81.4012C128.727 82.1396 130.25 83.0399 131.516 84.102L128.824 87.5953C127.677 86.7773 126.501 86.0844 125.297 85.5164C124.087 84.9427 122.746 84.6558 121.275 84.6558C119.151 84.6558 117.586 85.1358 116.58 86.0957C115.581 87.0557 115.081 88.1917 115.081 89.5038C115.081 90.5262 115.419 91.3839 116.095 92.0768C116.765 92.7698 117.654 93.352 118.762 93.8235C119.864 94.2949 121.028 94.7749 122.255 95.2634C123.482 95.7178 124.7 96.2091 125.91 96.7373C127.114 97.2713 128.196 97.9046 129.156 98.6373C130.116 99.3757 130.894 100.287 131.491 101.372C132.081 102.457 132.377 103.795 132.377 105.385C132.377 107.186 131.917 108.844 130.996 110.361C130.076 111.872 128.727 113.068 126.949 113.948C125.172 114.828 122.954 115.269 120.295 115.269ZM146.98 128.824C146.202 128.824 145.486 128.762 144.833 128.637C144.18 128.517 143.586 128.355 143.052 128.151L144.16 123.669C144.484 123.794 144.87 123.916 145.319 124.036C145.773 124.161 146.245 124.223 146.733 124.223C148.613 124.223 150.158 123.539 151.368 122.17C152.572 120.795 153.521 119.086 154.214 117.041L154.955 114.527L141.578 81.1541H147.406L154.154 99.6257C154.688 101.097 155.23 102.65 155.781 104.286C156.332 105.922 156.895 107.515 157.468 109.066H157.775C158.224 107.515 158.684 105.931 159.155 104.312C159.627 102.699 160.067 101.137 160.476 99.6257L166.483 81.1541H171.944L159.428 117.288C158.656 119.458 157.716 121.412 156.608 123.15C155.506 124.888 154.177 126.268 152.621 127.29C151.07 128.313 149.19 128.824 146.98 128.824Z" fill="#397C65"/>
</g>
<defs>
<clipPath id="clip0_959_2335">
<rect width="53.5924" height="77.1429" fill="white" transform="translate(62.2383)"/>
</clipPath>
<clipPath id="clip1_959_2335">
<rect width="171.944" height="63.1851" fill="white" transform="translate(0 65.639)"/>
</clipPath>
</defs>
</svg>
