<svg width="140" height="140" viewBox="0 0 140 140" fill="none" xmlns="http://www.w3.org/2000/svg">
<path d="M102.083 67.0833H103.25C103.362 66.1153 103.41 65.141 103.396 64.1667C103.373 57.5316 101.382 51.0524 97.6761 45.5488C93.97 40.0452 88.7148 35.7643 82.5754 33.2479C76.436 30.7314 69.6881 30.0924 63.1855 31.4116C56.6828 32.7309 50.7175 35.9491 46.0441 40.6591C41.3708 45.3692 38.1994 51.3596 36.9311 57.8723C35.6629 64.3851 36.3547 71.1278 38.9191 77.2473C41.4836 83.3668 45.8054 88.5883 51.3379 92.2512C56.8704 95.9141 63.3649 97.8538 70 97.825C70.9746 97.8192 71.9483 97.7608 72.9167 97.65V96.25C72.9167 88.5145 75.9896 81.0959 81.4594 75.6261C86.9292 70.1562 94.3478 67.0833 102.083 67.0833ZM63.9042 43.2833C59.3521 44.6121 55.3523 47.3785 52.5029 51.169C49.6534 54.9595 48.1074 59.5705 48.0958 64.3125V66.4125C48.1689 67.1821 47.9335 67.9493 47.4413 68.5454C46.9491 69.1415 46.2404 69.5178 45.4708 69.5917H45.1792C44.449 69.5946 43.7443 69.3236 43.2043 68.8322C42.6643 68.3408 42.3282 67.6647 42.2625 66.9375C42.2182 66.0631 42.2182 65.1869 42.2625 64.3125C42.2787 58.3095 44.236 52.4727 47.842 47.6734C51.448 42.8741 56.5095 39.3697 62.2708 37.6833C62.6385 37.5761 63.0237 37.5423 63.4045 37.584C63.7852 37.6256 64.1541 37.7418 64.4899 37.926C64.8258 38.1101 65.122 38.3587 65.3618 38.6573C65.6016 38.956 65.7802 39.299 65.8875 39.6667C65.9947 40.0344 66.0285 40.4196 65.9869 40.8004C65.9452 41.1811 65.829 41.5499 65.6449 41.8858C65.4607 42.2216 65.2122 42.5179 64.9135 42.7577C64.6148 42.9975 64.2719 43.1761 63.9042 43.2833ZM71.4292 39.375C71.496 38.9977 71.6366 38.6372 71.8429 38.3142C72.0491 37.9912 72.317 37.712 72.6312 37.4926C72.9454 37.2732 73.2998 37.1179 73.6741 37.0355C74.0484 36.9531 74.4352 36.9453 74.8125 37.0125C76.1855 37.273 77.5398 37.6238 78.8667 38.0625C79.5302 38.2802 80.0936 38.7287 80.4544 39.3266C80.8153 39.9245 80.9497 40.632 80.8332 41.3205C80.7167 42.009 80.357 42.6329 79.8195 43.0787C79.282 43.5246 78.6024 43.7628 77.9041 43.75C77.588 43.7421 77.2743 43.6931 76.9708 43.6042C75.9366 43.2338 74.8732 42.9508 73.7917 42.7583C73.4143 42.6915 73.0538 42.5509 72.7308 42.3446C72.4078 42.1384 72.1287 41.8705 71.9093 41.5563C71.6899 41.242 71.5345 40.8877 71.4521 40.5134C71.3698 40.1391 71.362 39.7523 71.4292 39.375ZM37.5375 92.2542L19.1917 110.629C18.6484 111.176 18.3435 111.915 18.3435 112.685C18.3435 113.456 18.6484 114.195 19.1917 114.742C19.7381 115.285 20.4774 115.59 21.2479 115.59C22.0184 115.59 22.7577 115.285 23.3042 114.742L41.6792 96.3958C41.9511 96.1239 42.1668 95.8011 42.314 95.4457C42.4612 95.0904 42.5369 94.7096 42.5369 94.325C42.5369 93.9404 42.4612 93.5596 42.314 93.2043C42.1668 92.849 41.9511 92.5261 41.6792 92.2542C41.4072 91.9822 41.0844 91.7665 40.729 91.6193C40.3737 91.4722 39.9929 91.3964 39.6083 91.3964C39.2237 91.3964 38.8429 91.4722 38.4876 91.6193C38.1323 91.7665 37.8094 91.9822 37.5375 92.2542Z" fill="#397C65"/>
<path d="M102.083 72.9167C97.4685 72.9167 92.9572 74.2851 89.12 76.849C85.2829 79.4129 82.2922 83.0571 80.5262 87.3207C78.7601 91.5843 78.298 96.2759 79.1984 100.802C80.0987 105.328 82.321 109.486 85.5842 112.749C88.8474 116.012 93.005 118.235 97.5312 119.135C102.057 120.035 106.749 119.573 111.013 117.807C115.276 116.041 118.92 113.05 121.484 109.213C124.048 105.376 125.417 100.865 125.417 96.25C125.417 90.0616 122.958 84.1267 118.583 79.7508C114.207 75.375 108.272 72.9167 102.083 72.9167ZM102.083 113.75C98.6222 113.75 95.2387 112.724 92.3609 110.801C89.483 108.878 87.24 106.145 85.9155 102.947C84.5909 99.7493 84.2444 96.2306 84.9196 92.8359C85.5948 89.4413 87.2616 86.323 89.709 83.8756C92.1564 81.4282 95.2746 79.7615 98.6693 79.0863C102.064 78.411 105.583 78.7576 108.78 80.0821C111.978 81.4066 114.711 83.6497 116.634 86.5275C118.557 89.4054 119.583 92.7888 119.583 96.25C119.583 100.891 117.74 105.342 114.458 108.624C111.176 111.906 106.725 113.75 102.083 113.75Z" fill="#397C65"/>
<path d="M110.337 87.9958C110.066 87.7225 109.744 87.5055 109.388 87.3574C109.033 87.2093 108.652 87.1331 108.267 87.1331C107.882 87.1331 107.5 87.2093 107.145 87.3574C106.789 87.5055 106.467 87.7225 106.196 87.9958L102.083 92.1375L97.9707 87.9958C97.4215 87.4466 96.6766 87.1381 95.8999 87.1381C95.1232 87.1381 94.3783 87.4466 93.8291 87.9958C93.2798 88.5451 92.9713 89.29 92.9713 90.0667C92.9713 90.8434 93.2798 91.5883 93.8291 92.1375L97.9707 96.25L93.8291 100.363C93.5557 100.634 93.3387 100.956 93.1906 101.312C93.0425 101.667 92.9663 102.048 92.9663 102.433C92.9663 102.818 93.0425 103.2 93.1906 103.555C93.3387 103.91 93.5557 104.233 93.8291 104.504C94.1016 104.774 94.4248 104.988 94.7802 105.134C95.1355 105.279 95.516 105.352 95.8999 105.35C96.2837 105.352 96.6643 105.279 97.0196 105.134C97.375 104.988 97.6982 104.774 97.9707 104.504L102.083 100.363L106.196 104.504C106.468 104.774 106.791 104.988 107.147 105.134C107.502 105.279 107.883 105.352 108.267 105.35C108.65 105.352 109.031 105.279 109.386 105.134C109.742 104.988 110.065 104.774 110.337 104.504C110.611 104.233 110.828 103.91 110.976 103.555C111.124 103.2 111.2 102.818 111.2 102.433C111.2 102.048 111.124 101.667 110.976 101.312C110.828 100.956 110.611 100.634 110.337 100.363L106.196 96.25L110.337 92.1375C110.611 91.8664 110.828 91.5438 110.976 91.1884C111.124 90.8329 111.2 90.4517 111.2 90.0667C111.2 89.6816 111.124 89.3004 110.976 88.945C110.828 88.5896 110.611 88.267 110.337 87.9958Z" fill="#397C65"/>
</svg>
